<?xml version="1.0" standalone="no"?>
<!DOCTYPE svg PUBLIC "-//W3C//DTD SVG 20010904//EN"
 "http://www.w3.org/TR/2001/REC-SVG-20010904/DTD/svg10.dtd">
<svg version="1.0" xmlns="http://www.w3.org/2000/svg"
 width="700.000000pt" height="700.000000pt" viewBox="0 0 700.000000 700.000000"
 preserveAspectRatio="xMidYMid meet">
<metadata>
Created by potrace 1.11, written by Peter Selinger 2001-2013
</metadata>
<g transform="translate(0.000000,700.000000) scale(0.100000,-0.100000)"
fill="#000000" stroke="none">
<path d="M3055 6819 c-210 -23 -378 -89 -545 -213 -65 -48 -170 -159 -220
-232 -49 -71 -130 -231 -130 -257 0 -7 -4 -17 -9 -23 -32 -35 -58 -346 -39
-476 13 -90 50 -207 93 -295 24 -48 42 -89 41 -90 -1 -1 -20 -5 -42 -8 -313
-48 -625 -172 -918 -367 -178 -119 -426 -370 -550 -557 l-50 -74 -31 36 c-74
86 -126 239 -127 374 0 105 14 168 62 268 90 188 279 321 485 340 90 8 105 13
127 39 26 31 23 82 -7 111 -13 14 -31 25 -40 26 -127 7 -257 -22 -381 -87
-191 -99 -334 -275 -395 -486 -27 -95 -33 -265 -12 -366 27 -135 112 -300 192
-376 17 -17 31 -33 31 -37 0 -4 -18 -46 -40 -93 -66 -143 -146 -395 -164 -518
-15 -96 -18 -115 -23 -138 -9 -44 -11 -403 -2 -475 11 -89 17 -133 24 -165 11
-56 15 -76 20 -106 6 -38 73 -257 95 -309 31 -75 135 -283 171 -341 44 -71
157 -226 206 -283 15 -18 71 -76 124 -129 83 -84 98 -104 109 -147 23 -96 27
-113 46 -215 9 -47 17 -92 19 -100 4 -21 14 -87 20 -137 3 -23 8 -57 10 -75 8
-53 14 -145 20 -265 4 -79 11 -129 26 -168 40 -108 160 -206 275 -223 27 -4
220 -7 429 -6 371 1 381 2 440 24 44 17 76 39 121 85 78 80 102 139 109 273 5
101 15 242 20 277 1 11 3 25 4 30 1 7 171 10 499 9 273 -1 500 -2 503 -3 4 0
7 -11 6 -23 0 -13 3 -70 7 -128 4 -58 9 -135 11 -171 2 -37 9 -86 15 -110 34
-127 151 -233 281 -257 24 -4 215 -7 424 -7 332 1 386 3 430 18 67 24 121 62
170 123 53 64 75 132 80 247 6 111 15 241 20 282 18 138 29 205 47 297 l21
108 91 67 c104 77 306 274 388 378 30 39 82 110 115 159 l60 88 199 79 c109
43 208 83 219 88 11 5 63 26 115 46 156 60 216 108 268 215 l27 55 2 550 c2
461 0 558 -12 599 -30 100 -92 171 -205 234 -29 16 -513 306 -588 353 -13 8
-44 46 -69 84 -39 61 -107 155 -138 192 -68 81 -188 204 -262 268 -63 56 -92
87 -92 103 -1 31 26 158 50 240 42 136 213 450 309 566 10 12 43 51 74 89 43
51 52 67 39 68 -31 1 -124 -2 -142 -6 -9 -1 -45 -6 -81 -10 -102 -10 -275 -44
-393 -76 -285 -78 -524 -206 -688 -369 l-77 -77 -84 5 c-45 3 -116 5 -156 6
-44 1 -71 5 -68 11 3 6 23 51 46 102 22 51 43 100 45 110 2 10 12 52 21 93 21
96 25 275 8 381 -53 333 -265 620 -570 773 -168 84 -383 125 -559 105z"/>
</g>
</svg>
